<?xml version="1.0" encoding="iso-8859-1"?>
<!-- Generator: Adobe Illustrator 19.0.0, SVG Export Plug-In . SVG Version: 6.00 Build 0)  -->
<svg version="1.1" id="Layer_1" xmlns="http://www.w3.org/2000/svg" xmlns:xlink="http://www.w3.org/1999/xlink" x="0px" y="0px"
	 viewBox="0 0 512 512" style="enable-background:new 0 0 512 512;" xml:space="preserve">
<g transform="translate(1 1)">
	<path style="fill:#E2E3E5;" d="M511,255c0,130.844-106.193,237.037-237.037,237.037S36.926,385.844,36.926,255
		S143.119,17.963,273.963,17.963S511,124.156,511,255"/>
	<path style="fill:#CCCCCC;" d="M482.556,255c0,130.844-106.193,237.037-237.037,237.037S8.481,385.844,8.481,255
		S114.674,17.963,245.519,17.963S482.556,124.156,482.556,255"/>
	<path style="fill:#E2E3E5;" d="M454.111,255c0,130.844-92.919,237.037-208.593,237.037S36.926,385.844,36.926,255
		S130.793,17.963,245.519,17.963S454.111,124.156,454.111,255"/>
	<path style="fill:#FFFFFF;" d="M36.926,255c0-130.844,93.867-237.037,208.593-237.037C114.674,17.963,8.481,124.156,8.481,255
		s106.193,237.037,237.037,237.037C130.793,492.037,36.926,385.844,36.926,255"/>
	<polygon style="fill:#E0E0E0;" points="292.926,340.333 150.704,253.104 292.926,171.563 	"/>
	<path style="fill:#F0F0F0;" d="M222.763,209.489c-0.948,0.948-1.896,1.896-2.844,2.844c-14.222,8.533-28.444,18.015-42.667,26.548
		c-1.896,0.948-2.844,0.948-4.741,0.948l-0.948,0.948c-8.533,10.43-10.43,9.481-3.793,21.807
		c7.585,14.222,29.393,19.911,43.615,28.444c17.067,10.43,36.03,18.963,53.096,30.341v-138.43
		C252.156,194.319,237.933,202.852,222.763,209.489"/>
	<g>
		<path style="fill:#B6B6B6;" d="M245.519,501.519C109.933,501.519-1,390.585-1,255S109.933,8.481,245.519,8.481
			S492.037,119.415,492.037,255S381.104,501.519,245.519,501.519z M245.519,27.444c-125.156,0-227.556,102.4-227.556,227.556
			s102.4,227.556,227.556,227.556S473.074,380.156,473.074,255S370.674,27.444,245.519,27.444z"/>
		<path style="fill:#B6B6B6;" d="M292.926,349.815c-1.896,0-3.793,0-4.741-0.948l-142.222-87.23
			c-2.844-1.896-4.741-4.741-4.741-8.533s1.896-6.637,4.741-8.533l142.222-82.489c2.844-1.896,6.637-1.896,9.481,0
			c2.844,1.896,4.741,4.741,4.741,8.533v169.719c0,3.793-1.896,6.637-4.741,8.533C295.77,349.815,294.822,349.815,292.926,349.815z
			 M169.667,254.052l113.778,70.163V187.681L169.667,254.052z"/>
	</g>
</g>
<g>
</g>
<g>
</g>
<g>
</g>
<g>
</g>
<g>
</g>
<g>
</g>
<g>
</g>
<g>
</g>
<g>
</g>
<g>
</g>
<g>
</g>
<g>
</g>
<g>
</g>
<g>
</g>
<g>
</g>
</svg>
