<svg id="svg" version="1.1" xmlns="http://www.w3.org/2000/svg" xmlns:xlink="http://www.w3.org/1999/xlink" width="400" height="400" viewBox="0, 0, 400,400"><g id="svgg"><path id="path0" d="M0.000 200.000 L 0.000 400.000 200.000 400.000 L 400.000 400.000 400.000 200.000 L 400.000 0.000 200.000 0.000 L 0.000 0.000 0.000 200.000 M198.000 89.254 C 199.210 89.471,201.460 89.802,203.000 89.988 C 206.733 90.439,209.166 91.006,209.712 91.552 C 209.958 91.798,210.765 92.000,211.505 92.000 C 212.244 92.000,213.783 92.425,214.925 92.945 C 216.066 93.465,217.630 94.125,218.400 94.411 C 219.170 94.697,220.084 95.172,220.431 95.466 C 220.779 95.760,221.319 96.013,221.631 96.029 C 221.944 96.045,222.740 96.399,223.400 96.815 C 224.060 97.232,225.320 97.945,226.200 98.400 C 231.065 100.917,244.000 111.940,244.000 113.568 C 244.000 113.759,244.262 114.015,244.583 114.138 C 244.904 114.261,245.650 115.135,246.243 116.081 C 246.835 117.026,247.428 117.890,247.560 118.000 C 247.816 118.214,248.111 118.669,250.018 121.800 C 251.566 124.341,251.755 124.681,252.647 126.500 C 253.051 127.325,253.521 128.000,253.691 128.000 C 253.861 128.000,254.000 128.312,254.000 128.694 C 254.000 129.076,254.425 130.291,254.945 131.394 C 255.465 132.497,256.218 134.480,256.618 135.800 C 257.019 137.120,257.473 138.380,257.628 138.600 C 257.783 138.820,258.008 139.720,258.128 140.600 C 258.248 141.480,258.668 143.370,259.062 144.800 C 259.728 147.220,259.786 150.738,259.894 195.706 L 260.009 244.012 221.105 243.887 C 185.997 243.774,181.927 243.695,179.400 243.077 C 177.860 242.700,175.880 242.290,175.000 242.165 C 174.120 242.041,173.040 241.788,172.600 241.603 C 172.160 241.419,170.810 240.956,169.600 240.575 C 168.390 240.195,166.528 239.459,165.463 238.941 C 164.398 238.424,163.269 238.000,162.955 238.000 C 162.641 238.000,161.671 237.550,160.800 237.000 C 159.929 236.450,158.942 236.000,158.608 236.000 C 158.274 236.000,158.000 235.861,158.000 235.691 C 158.000 235.521,157.325 235.027,156.500 234.594 C 154.564 233.577,148.717 229.464,148.031 228.637 C 147.740 228.287,147.326 228.000,147.112 228.000 C 146.897 228.000,146.239 227.505,145.650 226.900 C 145.062 226.295,143.954 225.244,143.190 224.565 C 142.425 223.886,140.990 222.377,140.000 221.212 C 139.010 220.046,137.930 218.800,137.600 218.442 C 136.473 217.220,134.000 213.694,134.000 213.308 C 134.000 213.097,133.645 212.602,133.210 212.209 C 132.776 211.816,132.300 211.113,132.153 210.647 C 132.005 210.181,131.461 209.243,130.942 208.562 C 130.424 207.881,130.000 207.113,130.000 206.854 C 130.000 206.596,129.550 205.671,129.000 204.800 C 128.450 203.929,127.998 202.987,127.996 202.708 C 127.994 202.429,127.550 201.300,127.009 200.200 C 126.468 199.100,126.019 197.741,126.013 197.180 C 126.006 196.619,125.846 195.989,125.658 195.780 C 125.057 195.112,124.000 191.300,124.000 189.799 C 124.000 189.000,123.816 188.003,123.591 187.582 C 121.500 183.676,121.499 149.126,123.589 145.221 C 123.815 144.798,124.000 143.763,124.000 142.921 C 124.000 142.078,124.380 140.401,124.845 139.194 C 125.310 137.987,125.786 136.465,125.904 135.811 C 126.021 135.158,126.541 133.826,127.058 132.852 C 127.576 131.878,128.000 130.863,128.000 130.597 C 128.000 129.983,130.681 124.808,131.433 123.969 C 131.745 123.621,132.000 123.098,132.000 122.806 C 132.000 122.514,132.450 121.686,133.000 120.964 C 133.550 120.243,134.000 119.493,134.000 119.296 C 134.000 119.100,134.450 118.517,135.000 118.000 C 135.550 117.483,136.000 116.837,136.000 116.564 C 136.000 116.290,136.135 116.007,136.300 115.933 C 136.465 115.860,137.408 114.810,138.396 113.600 C 141.658 109.605,147.688 104.046,150.762 102.200 C 151.129 101.980,151.861 101.395,152.390 100.900 C 152.918 100.405,153.509 100.000,153.702 100.000 C 153.895 100.000,154.643 99.550,155.364 99.000 C 156.086 98.450,156.974 98.000,157.338 98.000 C 157.702 98.000,158.000 97.861,158.000 97.691 C 158.000 97.521,158.675 97.047,159.500 96.637 C 160.325 96.227,161.834 95.466,162.854 94.946 C 163.874 94.426,164.954 93.998,165.254 93.996 C 165.554 93.994,166.700 93.550,167.800 93.009 C 168.900 92.468,170.349 92.019,171.020 92.013 C 171.691 92.006,172.411 91.830,172.620 91.623 C 173.175 91.072,176.169 90.365,179.600 89.975 C 181.250 89.787,183.320 89.466,184.200 89.263 C 186.344 88.766,195.255 88.760,198.000 89.254 M162.426 268.814 C 163.157 269.205,163.200 269.742,163.200 278.406 L 163.200 287.585 164.100 287.784 C 164.595 287.894,165.629 288.033,166.397 288.092 C 167.891 288.208,168.580 289.386,167.539 290.046 C 166.644 290.614,156.261 290.479,155.455 289.889 C 154.291 289.039,155.036 288.000,156.810 288.000 C 159.735 288.000,159.600 288.417,159.600 279.357 L 159.600 271.200 158.574 271.200 C 156.539 271.200,154.970 269.282,156.500 268.665 C 157.428 268.291,161.646 268.397,162.426 268.814 M182.329 270.351 C 182.486 271.995,181.978 272.582,180.677 272.255 C 178.675 271.752,179.089 268.641,181.127 268.876 C 182.023 268.980,182.221 269.222,182.329 270.351 M240.796 269.395 C 241.544 270.297,240.961 271.944,239.789 272.239 C 238.105 272.661,237.139 271.267,237.843 269.433 C 238.152 268.627,240.137 268.601,240.796 269.395 M117.767 269.843 C 118.282 270.040,118.400 270.785,118.400 273.835 C 118.400 278.206,118.306 278.123,123.008 277.920 L 125.800 277.800 125.914 273.937 C 126.037 269.773,126.276 269.353,128.239 269.845 L 129.214 270.090 129.107 280.145 L 129.000 290.200 127.600 290.200 L 126.200 290.200 126.000 285.800 L 125.800 281.400 122.200 281.400 L 118.600 281.400 118.400 285.796 C 118.226 289.617,118.106 290.209,117.481 290.329 C 115.713 290.666,115.600 290.048,115.600 280.031 C 115.600 269.644,115.724 269.059,117.767 269.843 M219.600 272.804 L 219.800 274.600 222.600 274.800 C 225.267 274.990,225.400 275.048,225.400 276.000 C 225.400 276.952,225.267 277.010,222.600 277.200 L 219.800 277.400 219.800 282.133 C 219.800 287.645,220.086 288.139,223.154 287.923 C 224.474 287.831,225.016 287.971,225.347 288.492 C 226.693 290.614,219.453 291.514,217.792 289.431 C 216.562 287.888,216.000 285.243,216.000 280.994 L 216.000 277.200 214.624 277.200 C 212.074 277.200,212.718 274.977,215.342 274.722 C 216.326 274.627,216.630 274.389,216.737 273.629 C 217.168 270.575,219.284 269.965,219.600 272.804 M143.325 274.661 C 148.715 275.551,150.810 284.495,146.612 288.693 C 144.824 290.481,144.205 290.648,140.200 290.421 C 138.420 290.320,135.600 288.050,135.600 286.719 C 135.600 286.323,135.420 286.000,135.200 286.000 C 134.477 286.000,134.719 279.816,135.500 278.351 C 137.171 275.213,139.635 274.051,143.325 274.661 M204.863 275.608 C 205.831 276.760,205.371 278.000,203.977 278.000 C 203.356 278.000,202.736 277.820,202.600 277.600 C 202.154 276.878,198.867 277.133,198.047 277.953 C 197.633 278.367,197.408 278.880,197.547 279.092 C 197.834 279.531,202.902 282.000,203.516 282.000 C 206.078 282.000,206.996 286.592,204.886 288.854 L 203.372 290.477 199.556 290.490 C 195.092 290.505,194.000 290.092,194.000 288.386 C 194.000 287.043,194.019 287.039,197.354 287.644 C 200.432 288.203,202.543 287.744,202.728 286.476 C 202.851 285.634,202.015 284.397,201.329 284.403 C 200.211 284.413,195.616 281.735,195.020 280.726 C 194.065 279.109,194.506 276.517,195.840 275.909 C 196.368 275.668,196.800 275.332,196.800 275.162 C 196.800 274.085,203.914 274.478,204.863 275.608 M264.034 275.021 C 265.605 275.992,263.880 278.638,262.233 277.783 C 260.443 276.855,256.440 277.729,256.410 279.054 C 256.405 279.304,256.131 280.024,255.802 280.654 C 255.139 281.926,255.006 283.833,255.556 284.173 C 255.751 284.294,256.030 284.866,256.175 285.445 C 256.646 287.318,257.275 287.600,260.984 287.600 C 264.663 287.600,265.285 287.947,264.439 289.528 C 263.787 290.746,256.440 290.920,255.670 289.736 C 255.522 289.507,255.159 289.243,254.865 289.148 C 252.133 288.272,251.166 280.139,253.500 277.671 C 253.775 277.381,254.000 276.980,254.000 276.782 C 254.000 275.185,262.021 273.777,264.034 275.021 M282.683 275.269 C 283.764 276.166,283.321 278.000,282.024 278.000 C 281.377 278.000,280.736 277.820,280.600 277.600 C 280.131 276.841,276.587 277.131,275.807 277.992 C 274.893 279.003,275.388 279.670,277.594 280.398 C 278.477 280.690,279.200 281.065,279.200 281.232 C 279.200 281.400,279.770 281.662,280.467 281.815 C 284.200 282.635,285.295 286.281,282.648 289.086 L 281.336 290.477 277.545 290.490 C 272.601 290.507,272.000 290.307,272.000 288.640 C 272.000 287.057,272.286 286.711,273.194 287.197 C 274.837 288.076,278.949 288.131,279.991 287.288 C 281.096 286.393,280.573 284.402,279.232 284.398 C 275.822 284.390,271.396 280.023,272.384 277.640 C 273.525 274.885,280.332 273.318,282.683 275.269 M182.310 281.284 L 182.420 287.568 183.710 287.776 C 184.420 287.890,185.450 288.033,186.000 288.092 C 186.771 288.175,187.000 288.429,187.000 289.200 L 187.000 290.200 181.000 290.200 L 175.000 290.200 174.873 289.100 C 174.761 288.121,174.876 288.000,175.923 288.000 C 176.571 288.000,177.668 287.886,178.362 287.748 L 179.623 287.495 179.512 282.448 L 179.400 277.400 177.741 277.279 C 176.584 277.195,176.029 276.953,175.906 276.479 C 175.519 274.985,175.968 274.764,179.139 274.884 L 182.200 275.000 182.310 281.284 M240.664 275.300 C 240.836 275.575,240.920 278.430,240.851 281.644 C 240.710 288.227,240.585 287.982,244.073 287.995 C 245.508 288.000,246.558 289.174,245.804 289.930 C 245.246 290.491,234.239 290.476,233.478 289.913 C 232.295 289.038,233.017 288.000,234.810 288.000 C 237.640 288.000,237.600 288.080,237.600 282.380 L 237.600 277.246 235.900 277.123 C 234.379 277.013,234.187 276.884,234.073 275.900 L 233.947 274.800 237.150 274.800 C 239.279 274.800,240.457 274.968,240.664 275.300 M139.419 278.194 C 137.851 279.475,137.642 285.420,139.113 286.891 C 141.795 289.573,145.599 287.230,145.600 282.895 C 145.600 278.046,142.492 275.682,139.419 278.194 " stroke="none" fill="#3b3c44" fill-rule="evenodd"></path><path id="path1" d="M185.600 89.988 C 185.270 90.208,183.515 90.391,181.700 90.394 C 179.849 90.397,178.400 90.570,178.400 90.786 C 178.400 90.999,177.496 91.292,176.391 91.439 C 175.286 91.586,174.285 91.862,174.167 92.053 C 174.049 92.244,173.231 92.400,172.348 92.400 C 171.455 92.400,170.477 92.666,170.143 93.000 C 169.813 93.330,169.206 93.600,168.795 93.600 C 168.384 93.600,167.936 93.780,167.800 94.000 C 167.664 94.220,167.038 94.400,166.410 94.400 C 165.781 94.400,165.207 94.535,165.133 94.700 C 164.975 95.057,162.152 96.400,161.560 96.400 C 161.333 96.400,160.557 96.850,159.836 97.400 C 159.114 97.950,158.226 98.400,157.862 98.400 C 157.498 98.400,157.197 98.535,157.194 98.700 C 157.191 98.865,156.113 99.630,154.800 100.400 C 153.487 101.170,152.409 101.935,152.406 102.100 C 152.403 102.265,152.161 102.400,151.870 102.400 C 151.578 102.400,150.917 102.850,150.400 103.400 C 149.883 103.950,149.319 104.400,149.146 104.400 C 148.974 104.400,148.133 105.075,147.278 105.900 C 146.424 106.725,144.931 108.139,143.962 109.041 C 142.993 109.944,141.210 111.813,140.000 113.195 C 138.790 114.576,137.485 115.993,137.100 116.342 C 136.715 116.692,136.400 117.216,136.400 117.508 C 136.400 117.800,135.950 118.455,135.400 118.965 C 134.850 119.475,134.400 120.104,134.400 120.363 C 134.400 120.623,133.950 121.320,133.400 121.913 C 132.850 122.507,132.400 123.309,132.400 123.696 C 132.400 124.083,132.240 124.400,132.043 124.400 C 131.847 124.400,131.574 124.850,131.436 125.400 C 131.298 125.950,131.008 126.400,130.792 126.400 C 130.577 126.400,130.400 126.610,130.400 126.866 C 130.400 127.612,129.077 130.400,128.723 130.400 C 128.545 130.400,128.394 130.805,128.387 131.300 C 128.381 131.795,127.932 133.100,127.391 134.200 C 126.850 135.300,126.406 136.695,126.404 137.300 C 126.402 137.905,126.243 138.400,126.052 138.400 C 125.860 138.400,125.584 139.300,125.438 140.400 C 125.292 141.500,124.999 142.400,124.786 142.400 C 124.574 142.400,124.400 143.444,124.400 144.720 C 124.400 146.043,124.185 147.255,123.900 147.540 C 123.514 147.926,123.400 152.285,123.400 166.600 C 123.400 180.915,123.514 185.274,123.900 185.660 C 124.185 185.945,124.400 187.157,124.400 188.480 C 124.400 189.756,124.578 190.800,124.795 190.800 C 125.013 190.800,125.306 191.524,125.448 192.409 C 125.589 193.294,125.861 194.114,126.053 194.232 C 126.244 194.351,126.400 195.135,126.400 195.975 C 126.400 196.844,126.658 197.716,127.000 198.000 C 127.330 198.274,127.600 198.836,127.600 199.249 C 127.600 199.662,127.780 200.000,128.000 200.000 C 128.220 200.000,128.400 200.630,128.400 201.400 C 128.400 202.170,128.577 202.800,128.792 202.800 C 129.008 202.800,129.298 203.250,129.436 203.800 C 129.574 204.350,129.847 204.800,130.043 204.800 C 130.240 204.800,130.400 205.250,130.400 205.800 C 130.400 206.350,130.539 206.800,130.709 206.800 C 130.879 206.800,131.369 207.475,131.799 208.300 C 132.228 209.125,132.989 210.357,133.489 211.038 C 133.990 211.719,134.400 212.471,134.400 212.709 C 134.400 212.948,135.024 213.804,135.786 214.613 C 136.549 215.421,137.281 216.424,137.413 216.841 C 137.546 217.259,137.822 217.600,138.027 217.600 C 138.232 217.600,138.400 217.784,138.400 218.009 C 138.400 218.233,139.390 219.407,140.600 220.617 C 141.810 221.827,142.800 222.993,142.800 223.209 C 142.800 223.424,142.992 223.600,143.226 223.600 C 143.460 223.600,144.529 224.500,145.600 225.600 C 146.671 226.700,147.727 227.600,147.945 227.600 C 148.163 227.600,148.696 228.050,149.129 228.600 C 149.561 229.150,150.071 229.600,150.262 229.600 C 150.452 229.600,151.093 230.050,151.687 230.600 C 152.280 231.150,152.998 231.603,153.283 231.607 C 153.567 231.611,154.224 232.061,154.742 232.607 C 155.260 233.153,156.012 233.600,156.413 233.600 C 156.814 233.600,157.496 234.050,157.929 234.600 C 158.372 235.163,159.128 235.600,159.662 235.600 C 160.182 235.600,161.093 236.050,161.687 236.600 C 162.280 237.150,163.240 237.600,163.821 237.600 C 164.854 237.600,167.269 238.706,167.533 239.300 C 167.607 239.465,168.327 239.606,169.133 239.613 C 169.940 239.620,170.949 239.890,171.376 240.213 C 171.804 240.536,172.479 240.800,172.876 240.800 C 173.274 240.800,173.600 240.980,173.600 241.200 C 173.600 241.420,174.635 241.603,175.900 241.606 C 177.165 241.609,178.920 241.871,179.800 242.188 C 180.680 242.505,182.064 242.773,182.876 242.782 C 183.688 242.792,184.464 242.980,184.600 243.200 C 184.762 243.462,197.737 243.600,222.224 243.600 L 259.600 243.600 259.600 196.995 C 259.600 170.392,259.447 150.091,259.242 149.695 C 258.692 148.626,257.943 144.874,257.727 142.100 C 257.620 140.725,257.367 139.600,257.166 139.600 C 256.965 139.600,256.800 139.274,256.800 138.876 C 256.800 138.479,256.536 137.804,256.213 137.376 C 255.890 136.949,255.620 135.925,255.613 135.100 C 255.606 134.275,255.420 133.600,255.200 133.600 C 254.980 133.600,254.800 133.352,254.800 133.049 C 254.800 132.746,254.530 132.274,254.200 132.000 C 253.870 131.726,253.600 131.046,253.600 130.489 C 253.600 129.931,253.150 128.886,252.600 128.164 C 252.050 127.443,251.600 126.552,251.600 126.184 C 251.600 125.817,251.150 124.981,250.600 124.327 C 250.050 123.673,249.600 122.858,249.600 122.515 C 249.600 122.172,249.150 121.475,248.600 120.965 C 248.050 120.455,247.600 119.790,247.600 119.487 C 247.600 119.184,246.701 117.960,245.602 116.768 C 244.504 115.576,243.604 114.487,243.602 114.349 C 243.601 114.210,242.520 112.959,241.200 111.567 C 239.880 110.176,238.800 108.894,238.800 108.719 C 238.800 108.543,238.620 108.400,238.400 108.400 C 238.181 108.400,237.259 107.680,236.352 106.800 C 235.445 105.920,234.570 105.200,234.408 105.200 C 234.245 105.200,233.444 104.570,232.627 103.800 C 231.811 103.030,230.937 102.400,230.684 102.400 C 230.432 102.400,229.860 101.994,229.413 101.499 C 228.966 101.003,227.925 100.286,227.100 99.905 C 226.275 99.524,225.600 99.030,225.600 98.806 C 225.600 98.583,225.150 98.400,224.600 98.400 C 224.050 98.400,223.600 98.240,223.600 98.043 C 223.600 97.847,223.150 97.574,222.600 97.436 C 222.050 97.298,221.600 97.008,221.600 96.792 C 221.600 96.577,221.390 96.400,221.134 96.400 C 220.388 96.400,217.600 95.077,217.600 94.723 C 217.600 94.545,217.071 94.400,216.424 94.400 C 215.777 94.400,215.136 94.220,215.000 94.000 C 214.864 93.780,214.448 93.599,214.076 93.598 C 213.704 93.596,212.884 93.326,212.254 92.998 C 211.624 92.669,210.677 92.400,210.149 92.400 C 209.621 92.400,208.877 92.229,208.495 92.020 C 208.113 91.812,206.945 91.531,205.900 91.396 C 204.855 91.261,204.000 90.994,204.000 90.803 C 204.000 90.156,186.510 89.382,185.600 89.988 M196.600 121.248 C 197.480 121.484,199.190 121.821,200.400 121.996 C 203.083 122.383,204.354 122.757,205.389 123.462 C 205.823 123.758,206.543 124.013,206.989 124.029 C 207.435 124.045,208.340 124.403,209.000 124.825 C 209.660 125.246,210.470 125.696,210.800 125.824 C 211.495 126.095,211.682 126.206,214.040 127.758 C 215.008 128.395,215.944 129.160,216.120 129.458 C 216.296 129.756,216.649 130.000,216.906 130.000 C 217.379 130.000,217.749 130.325,220.600 133.241 C 221.480 134.141,222.605 135.286,223.100 135.785 C 223.595 136.284,224.000 136.868,224.000 137.084 C 224.000 137.300,224.379 137.819,224.843 138.238 C 225.306 138.657,226.028 139.630,226.447 140.400 C 226.866 141.170,227.380 142.070,227.589 142.400 C 228.237 143.421,229.798 147.242,231.022 150.800 L 232.191 154.200 232.325 178.076 C 232.429 196.416,232.575 202.047,232.955 202.363 C 233.227 202.589,235.599 202.824,238.225 202.887 L 243.000 203.000 243.111 209.146 C 243.186 213.338,243.075 215.468,242.762 215.846 C 242.249 216.464,220.259 216.680,219.310 216.077 C 218.933 215.837,218.787 209.040,218.677 186.583 C 218.530 156.688,218.456 155.266,216.869 152.025 C 216.391 151.049,216.000 150.027,216.000 149.756 C 216.000 149.484,215.577 148.753,215.060 148.131 C 214.542 147.509,214.047 146.796,213.960 146.547 C 212.825 143.325,202.735 136.000,199.432 136.000 C 198.890 136.000,198.348 135.839,198.226 135.642 C 197.397 134.300,185.003 134.300,184.174 135.642 C 184.052 135.839,183.558 136.000,183.075 136.000 C 181.990 136.000,176.738 138.511,176.024 139.371 C 175.737 139.717,175.286 140.000,175.023 140.000 C 173.622 140.000,166.000 149.580,166.000 151.340 C 166.000 151.630,165.881 151.986,165.735 152.132 C 164.960 152.906,164.000 156.856,164.000 159.267 L 164.000 161.964 162.700 162.201 C 161.985 162.331,158.880 162.384,155.800 162.319 L 150.200 162.200 150.065 160.200 C 149.903 157.814,150.722 152.919,151.468 151.811 C 151.761 151.377,152.000 150.544,152.000 149.960 C 152.000 148.750,152.986 146.180,153.594 145.804 C 153.817 145.666,154.000 145.175,154.000 144.714 C 154.000 144.253,154.450 143.286,155.000 142.564 C 155.550 141.843,156.000 141.054,156.000 140.809 C 156.000 140.565,156.450 139.880,157.000 139.287 C 157.550 138.693,158.000 138.010,158.000 137.767 C 158.000 137.327,164.923 130.000,165.339 130.000 C 165.460 130.000,166.044 129.550,166.638 129.000 C 167.231 128.450,167.901 128.000,168.127 128.000 C 168.352 128.000,168.821 127.744,169.169 127.432 C 170.133 126.564,175.030 124.000,175.723 124.000 C 176.060 124.000,176.935 123.700,177.668 123.332 C 178.400 122.965,179.313 122.515,179.695 122.332 C 180.077 122.150,181.067 121.997,181.895 121.994 C 182.723 121.991,184.210 121.733,185.200 121.421 C 187.352 120.743,194.322 120.637,196.600 121.248 M195.933 164.457 C 196.007 164.646,196.229 164.800,196.428 164.800 C 197.290 164.800,200.016 167.133,200.869 168.600 C 206.232 177.820,199.285 188.341,189.102 186.419 C 179.951 184.693,176.503 172.266,183.570 166.485 C 185.507 164.901,187.288 164.037,188.852 163.922 C 191.428 163.733,195.780 164.062,195.933 164.457 " stroke="none" fill="#04acb4" fill-rule="evenodd"></path><path id="path2" d="M188.600 121.276 C 183.068 121.822,180.563 122.291,178.646 123.138 C 177.575 123.612,176.431 124.000,176.104 124.000 C 175.426 124.000,170.519 126.576,169.569 127.432 C 169.221 127.744,168.804 128.000,168.642 128.000 C 167.687 128.000,158.400 136.702,158.400 137.597 C 158.400 137.759,157.863 138.501,157.206 139.246 C 156.550 139.991,156.010 140.915,156.006 141.300 C 156.003 141.685,155.865 142.001,155.700 142.003 C 155.310 142.006,154.000 144.309,154.000 144.992 C 154.000 145.281,153.552 146.302,153.005 147.259 C 152.457 148.217,152.007 149.639,152.005 150.420 C 152.002 151.201,151.823 152.017,151.607 152.233 C 151.059 152.781,149.791 160.479,150.112 161.315 C 150.345 161.923,151.110 162.000,156.937 162.000 L 163.500 162.000 163.750 160.750 C 163.888 160.063,164.003 158.668,164.006 157.650 C 164.011 155.939,164.686 153.363,165.566 151.695 C 165.768 151.313,166.231 150.370,166.596 149.600 C 166.960 148.830,167.507 147.750,167.811 147.200 C 168.593 145.783,174.047 140.000,174.600 140.000 C 174.853 140.000,175.483 139.550,176.000 139.000 C 176.517 138.450,177.182 138.000,177.478 138.000 C 177.774 138.000,178.729 137.550,179.600 137.000 C 180.471 136.450,181.542 136.000,181.978 136.000 C 182.415 136.000,183.364 135.747,184.086 135.438 C 187.900 133.808,195.145 133.822,198.480 135.467 C 199.074 135.760,199.869 136.000,200.246 136.000 C 201.160 136.000,204.000 137.269,204.000 137.677 C 204.000 137.855,204.334 138.000,204.742 138.000 C 205.149 138.000,205.969 138.450,206.562 139.000 C 207.156 139.550,207.823 140.000,208.045 140.000 C 208.661 140.000,213.559 145.159,214.276 146.562 C 214.624 147.243,215.154 147.944,215.454 148.120 C 215.754 148.296,216.000 148.696,216.000 149.009 C 216.000 149.322,216.435 150.528,216.967 151.689 C 217.932 153.795,218.052 154.292,218.785 159.200 C 219.006 160.678,219.179 173.497,219.187 188.900 L 219.200 216.000 231.010 216.000 L 242.820 216.000 242.710 209.500 L 242.600 203.000 237.544 202.888 C 232.702 202.782,232.477 202.739,232.249 201.888 C 232.118 201.400,232.005 190.560,231.997 177.800 L 231.983 154.600 230.993 151.800 C 230.449 150.260,230.003 148.703,230.002 148.341 C 230.001 147.978,229.552 146.898,229.005 145.941 C 228.457 144.983,228.007 143.963,228.005 143.673 C 228.002 143.384,227.550 142.557,227.000 141.836 C 226.450 141.114,226.000 140.360,226.000 140.158 C 226.000 139.957,225.550 139.307,225.000 138.713 C 224.450 138.120,224.000 137.451,224.000 137.227 C 224.000 137.002,223.550 136.524,223.000 136.163 C 222.450 135.803,222.000 135.330,222.000 135.113 C 222.000 134.555,217.105 130.007,216.500 130.003 C 216.225 130.001,216.000 129.854,216.000 129.676 C 216.000 129.289,211.308 126.000,210.757 126.000 C 210.545 126.000,209.946 125.721,209.426 125.380 C 208.905 125.039,207.517 124.400,206.340 123.960 C 201.326 122.084,201.230 122.063,193.800 121.260 C 192.480 121.117,190.140 121.124,188.600 121.276 M186.121 164.970 C 179.097 168.986,177.819 177.116,183.279 183.040 C 184.172 184.008,185.084 184.800,185.307 184.800 C 185.530 184.800,185.932 185.102,186.202 185.470 C 186.775 186.254,195.411 186.519,195.921 185.769 C 196.074 185.543,196.832 184.974,197.605 184.505 C 198.977 183.672,200.800 181.859,200.800 181.328 C 200.800 181.182,201.037 180.779,201.326 180.431 C 202.840 178.612,202.896 171.982,201.414 170.000 C 201.167 169.670,200.721 168.911,200.422 168.313 C 198.493 164.455,190.350 162.551,186.121 164.970 M156.800 269.549 C 156.800 269.741,157.500 270.010,158.356 270.147 C 160.411 270.475,160.400 270.425,160.400 279.584 C 160.400 288.350,160.428 288.256,157.795 288.470 C 156.702 288.559,156.200 288.789,156.200 289.200 C 156.200 289.799,165.322 290.346,166.671 289.828 C 167.790 289.399,166.713 288.400,165.131 288.400 C 161.896 288.400,162.000 288.733,162.000 278.386 L 162.000 269.200 159.400 269.200 C 157.970 269.200,156.800 269.357,156.800 269.549 M180.165 269.747 C 179.763 270.796,180.174 271.800,181.005 271.800 C 181.621 271.800,181.800 271.531,181.800 270.605 C 181.800 269.297,180.583 268.658,180.165 269.747 M238.400 270.376 C 238.400 271.810,239.142 272.367,239.818 271.443 C 240.484 270.532,240.089 269.200,239.153 269.200 C 238.586 269.200,238.400 269.491,238.400 270.376 M116.400 280.229 C 116.400 289.375,116.449 290.049,117.100 289.925 C 117.704 289.810,117.827 289.161,118.000 285.196 L 118.200 280.600 122.200 280.600 L 126.200 280.600 126.314 284.985 C 126.431 289.465,126.653 290.068,128.044 289.704 C 128.759 289.518,128.800 288.984,128.800 279.953 L 128.800 270.400 127.600 270.400 L 126.400 270.400 126.394 274.100 C 126.386 278.977,126.503 278.855,121.967 278.716 L 118.200 278.600 118.086 274.500 C 117.981 270.730,117.909 270.400,117.186 270.400 C 116.426 270.400,116.400 270.725,116.400 280.229 M217.890 272.549 C 217.510 273.401,217.200 274.247,217.200 274.430 C 217.200 274.613,216.345 275.165,215.300 275.657 L 213.400 276.551 215.200 276.775 L 217.000 277.000 217.112 282.330 C 217.184 285.786,217.395 287.864,217.712 288.243 C 219.182 290.004,219.264 290.036,221.942 289.917 C 225.576 289.756,226.217 288.400,222.658 288.400 C 219.215 288.400,218.744 287.556,218.888 281.631 L 219.000 277.000 221.900 276.882 C 224.448 276.779,224.800 276.672,224.800 276.000 C 224.800 275.328,224.448 275.221,221.900 275.118 L 219.000 275.000 218.790 273.000 L 218.579 271.000 217.890 272.549 M138.525 275.913 C 136.793 276.741,135.200 279.843,135.200 282.386 C 135.200 289.138,141.771 292.608,146.189 288.189 L 148.000 286.379 147.994 282.689 C 147.983 276.570,143.646 273.466,138.525 275.913 M176.400 275.739 C 176.400 276.431,177.250 276.800,178.844 276.800 L 180.022 276.800 179.911 282.500 L 179.800 288.200 177.600 288.400 C 176.000 288.545,175.400 288.764,175.400 289.200 C 175.400 289.908,185.350 290.290,186.388 289.622 C 187.282 289.047,186.572 288.640,184.275 288.409 L 182.200 288.200 182.000 281.800 L 181.800 275.400 179.100 275.282 C 176.963 275.188,176.400 275.283,176.400 275.739 M196.759 276.113 C 194.568 277.584,194.916 282.000,197.222 282.000 C 197.624 282.000,198.064 282.180,198.200 282.400 C 198.336 282.620,198.719 282.800,199.052 282.800 C 199.385 282.800,199.927 283.070,200.257 283.400 C 200.587 283.730,201.182 284.000,201.580 284.000 C 203.210 284.000,203.999 286.401,202.773 287.627 C 201.985 288.415,201.591 288.479,198.513 288.317 C 195.824 288.176,195.076 288.258,194.902 288.710 C 194.535 289.668,195.642 289.987,199.353 289.994 L 202.906 290.000 204.253 288.572 C 206.433 286.259,205.313 283.083,202.000 282.184 C 200.144 281.681,197.002 279.805,196.876 279.125 C 196.522 277.218,200.737 276.036,203.774 277.190 C 204.960 277.641,205.236 276.779,204.229 275.771 C 203.244 274.787,198.404 275.008,196.759 276.113 M234.800 275.520 C 234.800 276.175,235.794 276.800,236.837 276.800 C 238.278 276.800,238.400 277.267,238.400 282.784 C 238.400 288.054,238.303 288.266,235.795 288.470 C 234.702 288.559,234.200 288.789,234.200 289.200 C 234.200 289.698,235.105 289.819,239.500 289.912 C 244.595 290.019,244.800 289.992,244.800 289.212 C 244.800 288.541,244.539 288.399,243.300 288.395 C 239.846 288.382,240.000 288.701,240.000 281.553 L 240.000 275.200 237.400 275.200 C 235.970 275.200,234.800 275.344,234.800 275.520 M255.972 276.184 C 251.943 278.827,251.693 285.527,255.502 288.781 C 257.308 290.324,263.800 290.553,263.800 289.074 C 263.800 288.439,263.396 288.339,260.571 288.274 C 257.082 288.194,256.622 287.963,255.452 285.700 C 252.848 280.665,258.045 274.655,262.802 277.201 C 263.715 277.690,264.164 277.147,263.799 275.996 C 263.402 274.745,257.966 274.876,255.972 276.184 M274.500 276.233 C 272.531 277.785,272.951 282.000,275.075 282.000 C 275.348 282.000,276.378 282.450,277.363 283.000 C 278.348 283.550,279.357 284.000,279.606 284.000 C 280.436 284.000,281.200 285.130,281.200 286.357 C 281.200 288.105,280.127 288.533,276.300 288.312 C 273.100 288.127,271.770 288.702,273.242 289.634 C 273.937 290.074,280.418 290.103,281.102 289.669 C 281.965 289.121,283.600 286.678,283.600 285.936 C 283.600 285.002,281.298 282.403,280.459 282.389 C 279.291 282.369,275.010 279.828,274.867 279.070 C 274.542 277.342,275.942 276.689,279.500 276.908 C 281.627 277.039,282.800 276.965,282.800 276.700 C 282.800 274.911,276.619 274.564,274.500 276.233 M144.663 277.900 C 148.459 281.972,146.178 288.788,141.180 288.308 C 138.068 288.009,136.719 284.975,137.665 280.398 C 138.417 276.758,142.305 275.370,144.663 277.900 " stroke="none" fill="#f8fafa" fill-rule="evenodd"></path><path id="path3" d="M187.907 121.090 C 188.626 121.179,189.706 121.177,190.307 121.086 C 190.908 120.995,190.320 120.922,189.000 120.924 C 187.680 120.926,187.188 121.001,187.907 121.090 M192.500 121.087 C 193.105 121.178,194.095 121.178,194.700 121.087 C 195.305 120.995,194.810 120.920,193.600 120.920 C 192.390 120.920,191.895 120.995,192.500 121.087 M196.033 121.344 C 196.125 121.423,196.740 121.608,197.400 121.756 C 198.276 121.952,198.438 121.915,198.000 121.618 C 197.460 121.253,195.632 120.998,196.033 121.344 M190.105 134.287 C 190.714 134.379,191.614 134.377,192.105 134.282 C 192.597 134.187,192.100 134.111,191.000 134.114 C 189.900 134.117,189.497 134.195,190.105 134.287 M158.801 136.598 C 158.286 137.148,157.939 137.664,158.032 137.746 C 158.124 137.828,158.619 137.378,159.130 136.747 C 160.276 135.335,160.074 135.244,158.801 136.598 M175.970 139.100 L 175.000 140.200 176.200 139.200 C 176.860 138.650,177.475 138.155,177.567 138.100 C 177.658 138.045,177.555 138.000,177.336 138.000 C 177.118 138.000,176.503 138.495,175.970 139.100 M171.600 142.600 C 170.628 143.590,169.923 144.400,170.033 144.400 C 170.143 144.400,171.028 143.590,172.000 142.600 C 172.972 141.610,173.677 140.800,173.567 140.800 C 173.457 140.800,172.572 141.610,171.600 142.600 M151.221 152.161 C 150.938 152.689,150.804 153.364,150.922 153.661 C 151.052 153.988,151.149 153.877,151.168 153.380 C 151.186 152.929,151.413 152.347,151.673 152.087 C 151.934 151.826,152.054 151.521,151.941 151.407 C 151.827 151.294,151.503 151.633,151.221 152.161 M232.187 179.800 C 232.187 191.900,232.237 196.908,232.300 190.928 C 232.362 184.949,232.362 175.049,232.300 168.928 C 232.238 162.808,232.187 167.700,232.187 179.800 M218.989 188.400 C 218.989 203.690,219.039 209.945,219.100 202.300 C 219.161 194.655,219.161 182.145,219.100 174.500 C 219.039 166.855,218.989 173.110,218.989 188.400 M150.350 162.111 C 150.521 162.282,153.438 162.371,156.831 162.310 L 163.000 162.198 156.519 161.999 C 152.954 161.889,150.178 161.940,150.350 162.111 M202.250 177.250 C 201.917 178.917,202.240 179.240,202.600 177.600 C 202.752 176.909,202.793 176.259,202.691 176.158 C 202.589 176.056,202.391 176.547,202.250 177.250 M182.000 182.125 C 182.000 182.194,182.585 182.779,183.300 183.425 L 184.600 184.600 183.425 183.300 C 182.330 182.088,182.000 181.816,182.000 182.125 M190.705 186.683 C 191.202 186.779,191.922 186.775,192.305 186.675 C 192.687 186.575,192.280 186.496,191.400 186.501 C 190.520 186.505,190.207 186.587,190.705 186.683 M242.799 209.319 L 242.998 215.800 243.110 209.631 C 243.171 206.238,243.082 203.321,242.911 203.150 C 242.740 202.978,242.689 205.754,242.799 209.319 M225.324 216.299 C 228.583 216.367,233.803 216.366,236.924 216.299 C 240.046 216.231,237.380 216.176,231.000 216.177 C 224.620 216.177,222.066 216.232,225.324 216.299 M156.500 268.665 C 154.970 269.282,156.539 271.200,158.574 271.200 L 159.600 271.200 159.600 279.357 C 159.600 288.417,159.735 288.000,156.810 288.000 C 155.036 288.000,154.291 289.039,155.455 289.889 C 156.261 290.479,166.644 290.614,167.539 290.046 C 168.580 289.386,167.891 288.208,166.397 288.092 C 165.629 288.033,164.595 287.894,164.100 287.784 L 163.200 287.585 163.200 278.406 C 163.200 269.742,163.157 269.205,162.426 268.814 C 161.646 268.397,157.428 268.291,156.500 268.665 M179.647 269.511 C 179.049 270.630,179.553 271.973,180.677 272.255 C 181.978 272.582,182.486 271.995,182.329 270.351 C 182.173 268.721,180.372 268.157,179.647 269.511 M237.843 269.433 C 237.139 271.267,238.105 272.661,239.789 272.239 C 240.961 271.944,241.544 270.297,240.796 269.395 C 240.137 268.601,238.152 268.627,237.843 269.433 M162.000 278.386 C 162.000 288.733,161.896 288.400,165.131 288.400 C 166.713 288.400,167.790 289.399,166.671 289.828 C 165.322 290.346,156.200 289.799,156.200 289.200 C 156.200 288.789,156.702 288.559,157.795 288.470 C 160.428 288.256,160.400 288.350,160.400 279.584 C 160.400 270.425,160.411 270.475,158.356 270.147 C 155.918 269.757,156.532 269.200,159.400 269.200 L 162.000 269.200 162.000 278.386 M181.800 270.605 C 181.800 271.531,181.621 271.800,181.005 271.800 C 180.174 271.800,179.763 270.796,180.165 269.747 C 180.583 268.658,181.800 269.297,181.800 270.605 M240.111 269.981 C 240.362 270.939,239.493 272.228,238.861 271.838 C 238.607 271.681,238.400 271.023,238.400 270.376 C 238.400 268.992,239.770 268.676,240.111 269.981 M116.080 270.080 C 115.313 270.847,115.406 289.341,116.181 289.984 C 117.735 291.274,118.190 290.416,118.400 285.796 L 118.600 281.400 122.200 281.400 L 125.800 281.400 126.000 285.800 L 126.200 290.200 127.600 290.200 L 129.000 290.200 129.107 280.145 L 129.214 270.090 128.239 269.845 C 126.276 269.353,126.037 269.773,125.914 273.937 L 125.800 277.800 123.008 277.920 C 118.306 278.123,118.400 278.206,118.400 273.835 C 118.400 270.785,118.282 270.040,117.767 269.843 C 116.874 269.500,116.625 269.535,116.080 270.080 M118.086 274.500 L 118.200 278.600 121.967 278.716 C 126.503 278.855,126.386 278.977,126.394 274.100 L 126.400 270.400 127.600 270.400 L 128.800 270.400 128.800 279.953 C 128.800 288.984,128.759 289.518,128.044 289.704 C 126.653 290.068,126.431 289.465,126.314 284.985 L 126.200 280.600 122.200 280.600 L 118.200 280.600 118.000 285.196 C 117.827 289.161,117.704 289.810,117.100 289.925 C 116.449 290.049,116.400 289.375,116.400 280.229 C 116.400 270.725,116.426 270.400,117.186 270.400 C 117.909 270.400,117.981 270.730,118.086 274.500 M217.495 271.711 C 217.154 272.232,216.812 273.095,216.737 273.629 C 216.630 274.389,216.326 274.627,215.342 274.722 C 212.718 274.977,212.074 277.200,214.624 277.200 L 216.000 277.200 216.000 280.994 C 216.000 285.243,216.562 287.888,217.792 289.431 C 219.453 291.514,226.693 290.614,225.347 288.492 C 225.016 287.971,224.474 287.831,223.154 287.923 C 220.086 288.139,219.800 287.645,219.800 282.133 L 219.800 277.400 222.600 277.200 C 225.267 277.010,225.400 276.952,225.400 276.000 C 225.400 275.048,225.267 274.990,222.600 274.800 L 219.800 274.600 219.600 272.804 C 219.367 270.711,218.459 270.239,217.495 271.711 M221.900 275.118 C 224.448 275.221,224.800 275.328,224.800 276.000 C 224.800 276.672,224.448 276.779,221.900 276.882 L 219.000 277.000 218.888 281.631 C 218.744 287.556,219.215 288.400,222.658 288.400 C 226.217 288.400,225.576 289.756,221.942 289.917 C 219.264 290.036,219.182 290.004,217.712 288.243 C 217.395 287.864,217.184 285.786,217.112 282.330 L 217.000 277.000 215.200 276.775 L 213.400 276.551 215.300 275.657 C 216.345 275.165,217.200 274.613,217.200 274.430 C 217.200 274.247,217.510 273.401,217.890 272.549 L 218.579 271.000 218.790 273.000 L 219.000 275.000 221.900 275.118 M139.817 274.692 C 138.025 275.147,136.533 276.412,135.500 278.351 C 134.719 279.816,134.477 286.000,135.200 286.000 C 135.420 286.000,135.600 286.323,135.600 286.719 C 135.600 290.480,143.422 291.883,146.612 288.693 C 152.174 283.131,147.171 272.824,139.817 274.692 M197.900 274.664 C 197.295 274.768,196.800 274.992,196.800 275.162 C 196.800 275.332,196.368 275.668,195.840 275.909 C 194.506 276.517,194.065 279.109,195.020 280.726 C 195.616 281.735,200.211 284.413,201.329 284.403 C 202.015 284.397,202.851 285.634,202.728 286.476 C 202.543 287.744,200.432 288.203,197.354 287.644 C 194.019 287.039,194.000 287.043,194.000 288.386 C 194.000 290.092,195.092 290.505,199.556 290.490 L 203.372 290.477 204.886 288.854 C 206.996 286.592,206.078 282.000,203.516 282.000 C 202.902 282.000,197.834 279.531,197.547 279.092 C 197.408 278.880,197.633 278.367,198.047 277.953 C 198.867 277.133,202.154 276.878,202.600 277.600 C 203.069 278.359,205.091 278.060,205.316 277.199 C 205.822 275.266,202.000 273.961,197.900 274.664 M257.800 274.730 C 256.286 275.071,254.000 276.305,254.000 276.782 C 254.000 276.980,253.775 277.381,253.500 277.671 C 251.166 280.139,252.133 288.272,254.865 289.148 C 255.159 289.243,255.522 289.507,255.670 289.736 C 256.440 290.920,263.787 290.746,264.439 289.528 C 265.285 287.947,264.663 287.600,260.984 287.600 C 257.275 287.600,256.646 287.318,256.175 285.445 C 256.030 284.866,255.751 284.294,255.556 284.173 C 255.006 283.833,255.139 281.926,255.802 280.654 C 256.131 280.024,256.405 279.304,256.410 279.054 C 256.440 277.729,260.443 276.855,262.233 277.783 C 263.622 278.504,264.400 277.998,264.400 276.375 C 264.400 274.788,261.143 273.976,257.800 274.730 M276.000 274.725 C 272.215 275.766,271.070 278.969,273.549 281.577 C 274.269 282.335,278.422 284.397,279.232 284.398 C 280.573 284.402,281.096 286.393,279.991 287.288 C 278.949 288.131,274.837 288.076,273.194 287.197 C 272.286 286.711,272.000 287.057,272.000 288.640 C 272.000 290.307,272.601 290.507,277.545 290.490 L 281.336 290.477 282.648 289.086 C 285.295 286.281,284.200 282.635,280.467 281.815 C 279.770 281.662,279.200 281.400,279.200 281.232 C 279.200 281.065,278.477 280.690,277.594 280.398 C 275.388 279.670,274.893 279.003,275.807 277.992 C 276.587 277.131,280.131 276.841,280.600 277.600 C 281.224 278.609,283.200 278.038,283.200 276.849 C 283.200 274.997,279.247 273.831,276.000 274.725 M175.904 275.284 C 175.490 276.513,176.085 277.158,177.741 277.279 L 179.400 277.400 179.512 282.448 L 179.623 287.495 178.362 287.748 C 177.668 287.886,176.571 288.000,175.923 288.000 C 174.876 288.000,174.761 288.121,174.873 289.100 L 175.000 290.200 181.000 290.200 L 187.000 290.200 187.000 289.200 C 187.000 288.429,186.771 288.175,186.000 288.092 C 185.450 288.033,184.420 287.890,183.710 287.776 L 182.420 287.568 182.310 281.284 L 182.200 275.000 179.139 274.884 C 176.911 274.799,176.030 274.908,175.904 275.284 M234.073 275.900 C 234.187 276.884,234.379 277.013,235.900 277.123 L 237.600 277.246 237.600 282.380 C 237.600 288.080,237.640 288.000,234.810 288.000 C 233.017 288.000,232.295 289.038,233.478 289.913 C 234.239 290.476,245.246 290.491,245.804 289.930 C 246.558 289.174,245.508 288.000,244.073 287.995 C 240.585 287.982,240.710 288.227,240.851 281.644 C 241.004 274.517,241.157 274.800,237.150 274.800 L 233.947 274.800 234.073 275.900 M144.714 275.892 C 147.493 277.663,147.987 278.686,147.994 282.689 L 148.000 286.379 146.189 288.189 C 140.407 293.972,132.291 286.080,136.225 278.498 C 137.799 275.465,142.013 274.171,144.714 275.892 M182.000 281.800 L 182.200 288.200 184.275 288.409 C 186.572 288.640,187.282 289.047,186.388 289.622 C 185.350 290.290,175.400 289.908,175.400 289.200 C 175.400 288.764,176.000 288.545,177.600 288.400 L 179.800 288.200 179.911 282.500 L 180.022 276.800 178.844 276.800 C 177.250 276.800,176.400 276.431,176.400 275.739 C 176.400 275.283,176.963 275.188,179.100 275.282 L 181.800 275.400 182.000 281.800 M204.229 275.771 C 205.236 276.779,204.960 277.641,203.774 277.190 C 200.737 276.036,196.522 277.218,196.876 279.125 C 197.002 279.805,200.144 281.681,202.000 282.184 C 205.313 283.083,206.433 286.259,204.253 288.572 L 202.906 290.000 199.353 289.994 C 195.642 289.987,194.535 289.668,194.902 288.710 C 195.076 288.258,195.824 288.176,198.513 288.317 C 201.591 288.479,201.985 288.415,202.773 287.627 C 203.999 286.401,203.210 284.000,201.580 284.000 C 201.182 284.000,200.587 283.730,200.257 283.400 C 199.927 283.070,199.385 282.800,199.052 282.800 C 198.719 282.800,198.336 282.620,198.200 282.400 C 198.064 282.180,197.624 282.000,197.222 282.000 C 194.916 282.000,194.568 277.584,196.759 276.113 C 198.404 275.008,203.244 274.787,204.229 275.771 M240.000 281.553 C 240.000 288.701,239.846 288.382,243.300 288.395 C 244.539 288.399,244.800 288.541,244.800 289.212 C 244.800 289.992,244.595 290.019,239.500 289.912 C 235.105 289.819,234.200 289.698,234.200 289.200 C 234.200 288.789,234.702 288.559,235.795 288.470 C 238.303 288.266,238.400 288.054,238.400 282.784 C 238.400 277.267,238.278 276.800,236.837 276.800 C 235.794 276.800,234.800 276.175,234.800 275.520 C 234.800 275.344,235.970 275.200,237.400 275.200 L 240.000 275.200 240.000 281.553 M263.799 275.996 C 264.164 277.147,263.715 277.690,262.802 277.201 C 258.045 274.655,252.848 280.665,255.452 285.700 C 256.622 287.963,257.082 288.194,260.571 288.274 C 263.396 288.339,263.800 288.439,263.800 289.074 C 263.800 290.553,257.308 290.324,255.502 288.781 C 251.693 285.527,251.943 278.827,255.972 276.184 C 257.966 274.876,263.402 274.745,263.799 275.996 M282.100 275.757 C 283.513 276.829,282.867 277.116,279.500 276.908 C 275.942 276.689,274.542 277.342,274.867 279.070 C 275.010 279.828,279.291 282.369,280.459 282.389 C 281.298 282.403,283.600 285.002,283.600 285.936 C 283.600 286.678,281.965 289.121,281.102 289.669 C 280.418 290.103,273.937 290.074,273.242 289.634 C 271.770 288.702,273.100 288.127,276.300 288.312 C 280.127 288.533,281.200 288.105,281.200 286.357 C 281.200 285.130,280.436 284.000,279.606 284.000 C 279.357 284.000,278.348 283.550,277.363 283.000 C 276.378 282.450,275.348 282.000,275.075 282.000 C 272.951 282.000,272.531 277.785,274.500 276.233 C 276.003 275.049,280.774 274.750,282.100 275.757 M139.170 277.461 C 137.150 278.715,136.819 284.896,138.638 287.384 C 140.121 289.412,144.502 288.478,145.740 285.870 C 148.307 280.461,143.743 274.621,139.170 277.461 M143.800 277.932 C 147.330 281.042,145.902 287.851,141.739 287.761 C 138.881 287.699,138.287 286.819,138.260 282.609 C 138.231 277.941,141.080 275.535,143.800 277.932 " stroke="none" fill="#91939a" fill-rule="evenodd"></path><path id="path4" d="M184.200 89.263 C 183.320 89.466,181.250 89.787,179.600 89.975 C 176.169 90.365,173.175 91.072,172.620 91.623 C 172.411 91.830,171.691 92.006,171.020 92.013 C 170.349 92.019,168.900 92.468,167.800 93.009 C 166.700 93.550,165.554 93.994,165.254 93.996 C 164.954 93.998,163.874 94.426,162.854 94.946 C 161.834 95.466,160.325 96.227,159.500 96.637 C 158.675 97.047,158.000 97.521,158.000 97.691 C 158.000 97.861,157.702 98.000,157.338 98.000 C 156.974 98.000,156.086 98.450,155.364 99.000 C 154.643 99.550,153.895 100.000,153.702 100.000 C 153.509 100.000,152.918 100.405,152.390 100.900 C 151.861 101.395,151.129 101.980,150.762 102.200 C 147.688 104.046,141.658 109.605,138.396 113.600 C 137.408 114.810,136.465 115.860,136.300 115.933 C 136.135 116.007,136.000 116.290,136.000 116.564 C 136.000 116.837,135.550 117.483,135.000 118.000 C 134.450 118.517,134.000 119.100,134.000 119.296 C 134.000 119.493,133.550 120.243,133.000 120.964 C 132.450 121.686,132.000 122.514,132.000 122.806 C 132.000 123.098,131.745 123.621,131.433 123.969 C 130.681 124.808,128.000 129.983,128.000 130.597 C 128.000 130.863,127.576 131.878,127.058 132.852 C 126.541 133.826,126.021 135.158,125.904 135.811 C 125.786 136.465,125.310 137.987,124.845 139.194 C 124.380 140.401,124.000 142.078,124.000 142.921 C 124.000 143.763,123.815 144.798,123.589 145.221 C 121.499 149.126,121.500 183.676,123.591 187.582 C 123.816 188.003,124.000 189.000,124.000 189.799 C 124.000 191.300,125.057 195.112,125.658 195.780 C 125.846 195.989,126.006 196.619,126.013 197.180 C 126.019 197.741,126.468 199.100,127.009 200.200 C 127.550 201.300,127.994 202.429,127.996 202.708 C 127.998 202.987,128.450 203.929,129.000 204.800 C 129.550 205.671,130.000 206.596,130.000 206.854 C 130.000 207.113,130.424 207.881,130.942 208.562 C 131.461 209.243,132.005 210.181,132.153 210.647 C 132.300 211.113,132.776 211.816,133.210 212.209 C 133.645 212.602,134.000 213.097,134.000 213.308 C 134.000 213.694,136.473 217.220,137.600 218.442 C 137.930 218.800,139.010 220.046,140.000 221.212 C 140.990 222.377,142.425 223.886,143.190 224.565 C 143.954 225.244,145.062 226.295,145.650 226.900 C 146.239 227.505,146.897 228.000,147.112 228.000 C 147.326 228.000,147.740 228.287,148.031 228.637 C 148.717 229.464,154.564 233.577,156.500 234.594 C 157.325 235.027,158.000 235.521,158.000 235.691 C 158.000 235.861,158.274 236.000,158.608 236.000 C 158.942 236.000,159.929 236.450,160.800 237.000 C 161.671 237.550,162.641 238.000,162.955 238.000 C 163.269 238.000,164.398 238.424,165.463 238.941 C 166.528 239.459,168.390 240.195,169.600 240.575 C 170.810 240.956,172.160 241.419,172.600 241.603 C 173.040 241.788,174.120 242.041,175.000 242.165 C 175.880 242.290,177.860 242.700,179.400 243.077 C 181.927 243.695,185.997 243.774,221.105 243.887 L 260.009 244.012 259.894 195.706 C 259.786 150.738,259.728 147.220,259.062 144.800 C 258.668 143.370,258.248 141.480,258.128 140.600 C 258.008 139.720,257.783 138.820,257.628 138.600 C 257.473 138.380,257.019 137.120,256.618 135.800 C 256.218 134.480,255.465 132.497,254.945 131.394 C 254.425 130.291,254.000 129.076,254.000 128.694 C 254.000 128.312,253.861 128.000,253.691 128.000 C 253.521 128.000,253.051 127.325,252.647 126.500 C 251.755 124.681,251.566 124.341,250.018 121.800 C 248.111 118.669,247.816 118.214,247.560 118.000 C 247.428 117.890,246.835 117.026,246.243 116.081 C 245.650 115.135,244.904 114.261,244.583 114.138 C 244.262 114.015,244.000 113.759,244.000 113.568 C 244.000 111.940,231.065 100.917,226.200 98.400 C 225.320 97.945,224.060 97.232,223.400 96.815 C 222.740 96.399,221.944 96.045,221.631 96.029 C 221.319 96.013,220.779 95.760,220.431 95.466 C 220.084 95.172,219.170 94.697,218.400 94.411 C 217.630 94.125,216.066 93.465,214.925 92.945 C 213.783 92.425,212.244 92.000,211.505 92.000 C 210.765 92.000,209.958 91.798,209.712 91.552 C 209.166 91.006,206.733 90.439,203.000 89.988 C 201.460 89.802,199.210 89.471,198.000 89.254 C 195.255 88.760,186.344 88.766,184.200 89.263 M200.100 90.219 C 202.245 90.349,204.000 90.612,204.000 90.803 C 204.000 90.994,204.855 91.261,205.900 91.396 C 206.945 91.531,208.113 91.812,208.495 92.020 C 208.877 92.229,209.621 92.400,210.149 92.400 C 210.677 92.400,211.624 92.669,212.254 92.998 C 212.884 93.326,213.704 93.596,214.076 93.598 C 214.448 93.599,214.864 93.780,215.000 94.000 C 215.136 94.220,215.777 94.400,216.424 94.400 C 217.071 94.400,217.600 94.545,217.600 94.723 C 217.600 95.077,220.388 96.400,221.134 96.400 C 221.390 96.400,221.600 96.577,221.600 96.792 C 221.600 97.008,222.050 97.298,222.600 97.436 C 223.150 97.574,223.600 97.847,223.600 98.043 C 223.600 98.240,224.050 98.400,224.600 98.400 C 225.150 98.400,225.600 98.583,225.600 98.806 C 225.600 99.030,226.275 99.524,227.100 99.905 C 227.925 100.286,228.966 101.003,229.413 101.499 C 229.860 101.994,230.432 102.400,230.684 102.400 C 230.937 102.400,231.811 103.030,232.627 103.800 C 233.444 104.570,234.245 105.200,234.408 105.200 C 234.570 105.200,235.445 105.920,236.352 106.800 C 237.259 107.680,238.181 108.400,238.400 108.400 C 238.620 108.400,238.800 108.543,238.800 108.719 C 238.800 108.894,239.880 110.176,241.200 111.567 C 242.520 112.959,243.601 114.210,243.602 114.349 C 243.604 114.487,244.504 115.576,245.602 116.768 C 246.701 117.960,247.600 119.184,247.600 119.487 C 247.600 119.790,248.050 120.455,248.600 120.965 C 249.150 121.475,249.600 122.172,249.600 122.515 C 249.600 122.858,250.050 123.673,250.600 124.327 C 251.150 124.981,251.600 125.817,251.600 126.184 C 251.600 126.552,252.050 127.443,252.600 128.164 C 253.150 128.886,253.600 129.931,253.600 130.489 C 253.600 131.046,253.870 131.726,254.200 132.000 C 254.530 132.274,254.800 132.746,254.800 133.049 C 254.800 133.352,254.980 133.600,255.200 133.600 C 255.420 133.600,255.606 134.275,255.613 135.100 C 255.620 135.925,255.890 136.949,256.213 137.376 C 256.536 137.804,256.800 138.479,256.800 138.876 C 256.800 139.274,256.965 139.600,257.166 139.600 C 257.367 139.600,257.620 140.725,257.727 142.100 C 257.943 144.874,258.692 148.626,259.242 149.695 C 259.447 150.091,259.600 170.392,259.600 196.995 L 259.600 243.600 222.224 243.600 C 197.737 243.600,184.762 243.462,184.600 243.200 C 184.464 242.980,183.688 242.792,182.876 242.782 C 182.064 242.773,180.680 242.505,179.800 242.188 C 178.920 241.871,177.165 241.609,175.900 241.606 C 174.635 241.603,173.600 241.420,173.600 241.200 C 173.600 240.980,173.274 240.800,172.876 240.800 C 172.479 240.800,171.804 240.536,171.376 240.213 C 170.949 239.890,169.940 239.620,169.133 239.613 C 168.327 239.606,167.607 239.465,167.533 239.300 C 167.269 238.706,164.854 237.600,163.821 237.600 C 163.240 237.600,162.280 237.150,161.687 236.600 C 161.093 236.050,160.182 235.600,159.662 235.600 C 159.128 235.600,158.372 235.163,157.929 234.600 C 157.496 234.050,156.814 233.600,156.413 233.600 C 156.012 233.600,155.260 233.153,154.742 232.607 C 154.224 232.061,153.567 231.611,153.283 231.607 C 152.998 231.603,152.280 231.150,151.687 230.600 C 151.093 230.050,150.452 229.600,150.262 229.600 C 150.071 229.600,149.561 229.150,149.129 228.600 C 148.696 228.050,148.163 227.600,147.945 227.600 C 147.727 227.600,146.671 226.700,145.600 225.600 C 144.529 224.500,143.460 223.600,143.226 223.600 C 142.992 223.600,142.800 223.424,142.800 223.209 C 142.800 222.993,141.810 221.827,140.600 220.617 C 139.390 219.407,138.400 218.233,138.400 218.009 C 138.400 217.784,138.232 217.600,138.027 217.600 C 137.822 217.600,137.546 217.259,137.413 216.841 C 137.281 216.424,136.549 215.421,135.786 214.613 C 135.024 213.804,134.400 212.948,134.400 212.709 C 134.400 212.471,133.990 211.719,133.489 211.038 C 132.989 210.357,132.228 209.125,131.799 208.300 C 131.369 207.475,130.879 206.800,130.709 206.800 C 130.539 206.800,130.400 206.350,130.400 205.800 C 130.400 205.250,130.240 204.800,130.043 204.800 C 129.847 204.800,129.574 204.350,129.436 203.800 C 129.298 203.250,129.008 202.800,128.792 202.800 C 128.577 202.800,128.400 202.170,128.400 201.400 C 128.400 200.630,128.220 200.000,128.000 200.000 C 127.780 200.000,127.600 199.662,127.600 199.249 C 127.600 198.836,127.330 198.274,127.000 198.000 C 126.658 197.716,126.400 196.844,126.400 195.975 C 126.400 195.135,126.244 194.351,126.053 194.232 C 125.861 194.114,125.589 193.294,125.448 192.409 C 125.306 191.524,125.013 190.800,124.795 190.800 C 124.578 190.800,124.400 189.756,124.400 188.480 C 124.400 187.157,124.185 185.945,123.900 185.660 C 123.514 185.274,123.400 180.915,123.400 166.600 C 123.400 152.285,123.514 147.926,123.900 147.540 C 124.185 147.255,124.400 146.043,124.400 144.720 C 124.400 143.444,124.574 142.400,124.786 142.400 C 124.999 142.400,125.292 141.500,125.438 140.400 C 125.584 139.300,125.860 138.400,126.052 138.400 C 126.243 138.400,126.402 137.905,126.404 137.300 C 126.406 136.695,126.850 135.300,127.391 134.200 C 127.932 133.100,128.381 131.795,128.387 131.300 C 128.394 130.805,128.545 130.400,128.723 130.400 C 129.077 130.400,130.400 127.612,130.400 126.866 C 130.400 126.610,130.577 126.400,130.792 126.400 C 131.008 126.400,131.298 125.950,131.436 125.400 C 131.574 124.850,131.847 124.400,132.043 124.400 C 132.240 124.400,132.400 124.083,132.400 123.696 C 132.400 123.309,132.850 122.507,133.400 121.913 C 133.950 121.320,134.400 120.623,134.400 120.363 C 134.400 120.104,134.850 119.475,135.400 118.965 C 135.950 118.455,136.400 117.800,136.400 117.508 C 136.400 117.216,136.715 116.692,137.100 116.342 C 137.485 115.993,138.790 114.576,140.000 113.195 C 141.210 111.813,142.993 109.944,143.962 109.041 C 144.931 108.139,146.424 106.725,147.278 105.900 C 148.133 105.075,148.974 104.400,149.146 104.400 C 149.319 104.400,149.883 103.950,150.400 103.400 C 150.917 102.850,151.578 102.400,151.870 102.400 C 152.161 102.400,152.403 102.265,152.406 102.100 C 152.409 101.935,153.487 101.170,154.800 100.400 C 156.113 99.630,157.191 98.865,157.194 98.700 C 157.197 98.535,157.498 98.400,157.862 98.400 C 158.226 98.400,159.114 97.950,159.836 97.400 C 160.557 96.850,161.333 96.400,161.560 96.400 C 162.152 96.400,164.975 95.057,165.133 94.700 C 165.207 94.535,165.781 94.400,166.410 94.400 C 167.038 94.400,167.664 94.220,167.800 94.000 C 167.936 93.780,168.384 93.600,168.795 93.600 C 169.206 93.600,169.813 93.330,170.143 93.000 C 170.477 92.666,171.455 92.400,172.348 92.400 C 173.231 92.400,174.049 92.244,174.167 92.053 C 174.285 91.862,175.286 91.586,176.391 91.439 C 177.496 91.292,178.400 90.999,178.400 90.786 C 178.400 90.570,179.849 90.397,181.700 90.394 C 183.515 90.391,185.270 90.208,185.600 89.988 C 186.180 89.601,191.221 89.682,200.100 90.219 " stroke="none" fill="#04a4ac" fill-rule="evenodd"></path></g></svg>